<svg width="134" height="55" viewBox="0 0 134 55" fill="none" xmlns="http://www.w3.org/2000/svg">
<path d="M61.7117 6.87897C61.5046 6.78234 61.2492 6.69951 60.9455 6.63049C60.6556 6.56146 60.2484 6.52695 59.7238 6.52695C59.1993 6.52695 58.7368 6.61668 58.3365 6.79614C57.9499 6.9618 57.66 7.2517 57.4668 7.66584C57.2873 8.06617 57.17 8.48031 57.1147 8.90826C57.0595 9.3224 57.0319 9.89529 57.0319 10.6269C57.0319 12.1869 57.2045 13.2636 57.5496 13.8572C57.9085 14.4508 58.6885 14.7476 59.8895 14.7476C60.5383 14.7476 61.0629 14.6648 61.4632 14.4991C61.8636 14.3335 62.1604 14.0574 62.3536 13.6709C62.5469 13.2705 62.6711 12.8564 62.7263 12.4284C62.7816 11.9867 62.8092 11.469 62.8092 10.8754C62.8092 10.268 62.8023 9.84007 62.7885 9.59159C62.7885 9.3293 62.7678 9.0325 62.7263 8.70119C62.6849 8.35607 62.6228 8.09378 62.54 7.91432C62.471 7.73486 62.3674 7.54159 62.2294 7.33452C62.0913 7.12745 61.9188 6.9756 61.7117 6.87897ZM59.9516 5.36736C61.0284 5.36736 61.8636 5.51231 62.4572 5.8022C63.0508 6.0783 63.4925 6.59597 63.7824 7.35523C64.0723 8.11449 64.2173 9.09462 64.2173 10.2956C64.2173 11.4966 64.0861 12.4561 63.8238 13.1739C63.5753 13.8917 63.2371 14.4439 62.8092 14.8305C61.9809 15.5759 61.0146 15.9486 59.9102 15.9486C58.295 15.9486 57.1769 15.569 56.5557 14.8098C55.9344 14.0505 55.6238 12.6631 55.6238 10.6476C55.6238 9.68132 55.755 8.83923 56.0173 8.12139C56.2796 7.40355 56.6316 6.85826 57.0733 6.48554C57.9292 5.74008 58.8886 5.36736 59.9516 5.36736Z" fill="white"/>
<path d="M70.9753 5.34665C72.5767 5.34665 73.6465 5.85052 74.1849 6.85826C74.4472 7.35523 74.6267 7.88671 74.7233 8.4527C74.8199 9.00489 74.8683 9.72273 74.8683 10.6062C74.8683 11.4759 74.7509 12.2697 74.5162 12.9875C74.2816 13.6916 74.0055 14.2231 73.688 14.582C73.3705 14.9409 73.0046 15.2308 72.5905 15.4517C71.9969 15.7692 71.424 15.9279 70.8718 15.9279C70.3334 15.9279 69.4913 15.6864 68.3456 15.2032V19.883H67.0617V8.1628L66.7097 5.65726H67.5587L67.6208 5.71938L67.9935 6.77543C68.8908 5.82291 69.8848 5.34665 70.9753 5.34665ZM68.3456 14.3128C69.091 14.5751 69.8157 14.7062 70.5198 14.7062C71.2376 14.7062 71.7691 14.6234 72.1142 14.4577C72.4731 14.2783 72.7354 14.085 72.9011 13.8779C73.0806 13.6571 73.2117 13.3327 73.2945 12.9047C73.3912 12.4768 73.4395 12.1386 73.4395 11.8901C73.4533 11.6416 73.4602 11.2205 73.4602 10.6269C73.4602 10.0195 73.4464 9.53637 73.4188 9.17745C73.405 8.80472 73.3566 8.42509 73.2738 8.03856C73.2048 7.63823 73.0875 7.35523 72.9218 7.18957C72.5077 6.77543 71.8934 6.56836 71.0789 6.56836C69.9193 6.56836 69.0082 6.94799 68.3456 7.70725V14.3128Z" fill="white"/>
<path d="M85.1119 9.07391C85.1119 9.57088 85.0705 10.0886 84.9877 10.6269H78.4857C78.5409 12.1455 78.7963 13.1946 79.2518 13.7744C79.7074 14.3404 80.515 14.6234 81.6746 14.6234C82.5443 14.6234 83.5589 14.437 84.7185 14.0643L84.8427 15.0997C84.5252 15.2239 84.2767 15.3136 84.0973 15.3688C83.9316 15.4103 83.7522 15.4655 83.5589 15.5345C83.3656 15.5897 83.2207 15.6311 83.124 15.6587C83.0274 15.6864 82.8894 15.7209 82.7099 15.7623C82.5304 15.8037 82.3786 15.8313 82.2544 15.8451C81.8816 15.8865 81.5641 15.9072 81.3018 15.9072C80.0042 15.9072 78.9826 15.4517 78.2372 14.5406C77.4917 13.6295 77.119 12.3594 77.119 10.7305C77.119 9.83317 77.2295 9.0463 77.4503 8.36987C77.6712 7.67964 77.9335 7.15506 78.2372 6.79614C78.5409 6.42342 78.9067 6.12661 79.3347 5.90574C79.9697 5.56062 80.6599 5.37426 81.4054 5.34665C83.8764 5.36046 85.1119 6.60288 85.1119 9.07391ZM83.8074 8.7426C83.8074 7.91432 83.6003 7.33452 83.1862 7.00321C82.772 6.6719 82.1577 6.50624 81.3432 6.50624C80.5288 6.50624 79.8592 6.72712 79.3347 7.16887C78.8101 7.59681 78.5409 8.39748 78.5271 9.57088H83.7453C83.7867 9.25337 83.8074 8.97728 83.8074 8.7426Z" fill="white"/>
<path d="M95.49 15.7209H94.1441V8.432C94.1303 7.75557 93.937 7.2724 93.5643 6.9825C93.2053 6.69261 92.6877 6.54766 92.0112 6.54766C91.3486 6.54766 90.7343 6.6788 90.1683 6.94109C89.6161 7.20338 89.2917 7.45186 89.1951 7.68654V15.7209H87.8698V8.1628L87.5178 5.63655H88.4082L88.4703 5.67796L88.8638 6.73402C89.3469 6.40271 89.7404 6.15422 90.0441 5.98857C90.8033 5.53301 91.6316 5.30524 92.5289 5.30524C94.4616 5.30524 95.4486 6.34749 95.49 8.432V15.7209Z" fill="white"/>
<path d="M55.5894 25.0253C56.8042 24.5836 58.226 24.2108 59.855 23.9071C61.5116 23.5758 63.1819 23.4102 64.8661 23.4102C66.7435 23.4102 68.3311 23.631 69.6287 24.0728C70.954 24.4869 72.0307 25.0667 72.859 25.8122C73.6873 26.53 74.2809 27.3721 74.6398 28.3384C75.0263 29.3048 75.2196 30.3263 75.2196 31.4031C75.2196 32.7283 74.9711 33.9017 74.4741 34.9233C73.9772 35.9172 73.3284 36.7869 72.5277 37.5323C71.7546 38.2502 70.8573 38.8576 69.8358 39.3546C68.8142 39.8239 67.7927 40.1828 66.7711 40.4313C67.2405 40.735 67.6823 41.1216 68.0964 41.5909C68.5105 42.0327 68.9523 42.5572 69.4216 43.1646L73.5216 48.4656C74.3775 49.57 75.1644 50.5225 75.8822 51.3232C76.6001 52.1239 77.2075 52.7313 77.7044 53.1454V53.3939C77.3179 53.5872 76.7519 53.7252 76.0065 53.808C75.261 53.9185 74.557 53.9737 73.8944 53.9737C73.6183 53.8633 73.2455 53.5734 72.7762 53.104C72.3344 52.607 71.7132 51.7788 70.9125 50.6192L66.0257 43.703C65.6668 43.2061 65.3216 42.7781 64.9903 42.4192C64.6866 42.0603 64.3415 41.7704 63.955 41.5495C63.5961 41.301 63.1681 41.1354 62.6712 41.0525C62.2018 40.9421 61.622 40.8869 60.9318 40.8869H58.9853V53.3111C58.5436 53.5596 58.019 53.7252 57.4116 53.808C56.8318 53.9185 56.2244 53.9737 55.5894 53.9737V25.0253ZM63.3752 25.3152C62.7126 25.3152 61.9947 25.3566 61.2217 25.4394C60.4486 25.5223 59.7031 25.6465 58.9853 25.8122V38.6505C59.4547 38.7886 59.993 38.899 60.6005 38.9818C61.2355 39.0647 61.9533 39.1061 62.754 39.1061C65.4597 39.1061 67.5994 38.5539 69.1732 37.4495C70.7469 36.3451 71.5338 34.6472 71.5338 32.3556C71.5338 31.3616 71.3681 30.4367 71.0368 29.5808C70.7055 28.6973 70.1947 27.9519 69.5045 27.3445C68.8418 26.7095 67.9998 26.2125 66.9782 25.8536C65.9567 25.4947 64.7557 25.3152 63.3752 25.3152Z" fill="#0AE862"/>
<path d="M83.6571 25.0667C84.8995 24.625 86.3214 24.2384 87.9227 23.9071C89.524 23.5758 91.2772 23.4102 93.1823 23.4102C95.1702 23.4102 96.8405 23.6586 98.1934 24.1556C99.5462 24.625 100.623 25.26 101.424 26.0607C102.252 26.8613 102.846 27.7724 103.204 28.794C103.563 29.8155 103.743 30.8647 103.743 31.9414C103.743 33.6256 103.398 35.1303 102.708 36.4556C102.045 37.7808 101.12 38.899 99.9328 39.8101C98.7732 40.7212 97.4065 41.4253 95.8328 41.9222C94.259 42.3916 92.5611 42.6263 90.7389 42.6263C90.021 42.6263 89.3446 42.5987 88.7096 42.5434C88.0746 42.4882 87.5224 42.4192 87.053 42.3364V53.3111C86.6113 53.5596 86.0867 53.7252 85.4793 53.808C84.8995 53.9185 84.2921 53.9737 83.6571 53.9737V25.0667ZM92.0227 25.3152C91.0288 25.3152 90.1176 25.3704 89.2894 25.4809C88.4611 25.5913 87.7156 25.7155 87.053 25.8536V39.5616C87.6604 39.8929 88.3645 40.169 89.1651 40.3899C89.9934 40.6108 91.0149 40.7212 92.2298 40.7212C94.6318 40.7212 96.5368 40.0862 97.9449 38.8162C99.353 37.5461 100.057 35.7101 100.057 33.3081C100.057 32.2037 99.9052 31.1684 99.6015 30.2021C99.2978 29.2357 98.8146 28.3936 98.152 27.6758C97.4893 26.9303 96.6473 26.3506 95.6257 25.9364C94.6318 25.5223 93.4308 25.3152 92.0227 25.3152Z" fill="#0AE862"/>
<path d="M134 49.9151C133.724 50.2464 133.282 50.6744 132.675 51.199C132.095 51.6959 131.322 52.1929 130.356 52.6899C129.417 53.1592 128.299 53.5596 127.001 53.8909C125.703 54.2498 124.226 54.4293 122.57 54.4293C120.748 54.4293 118.994 54.1256 117.31 53.5182C115.626 52.8831 114.121 51.9444 112.796 50.702C111.498 49.432 110.449 47.8582 109.649 45.9808C108.875 44.0758 108.489 41.8532 108.489 39.3131C108.489 37.132 108.875 35.0751 109.649 33.1425C110.449 31.2098 111.54 29.5256 112.92 28.0899C114.328 26.6266 115.971 25.4809 117.849 24.6526C119.726 23.8243 121.769 23.4102 123.978 23.4102C125.828 23.4102 127.36 23.6448 128.575 24.1142C129.79 24.5836 130.756 25.1495 131.474 25.8122C132.219 26.4472 132.758 27.1098 133.089 27.8C133.42 28.4627 133.627 29.0149 133.71 29.4566C133.517 29.8431 133.144 30.2159 132.592 30.5748C132.067 30.9061 131.446 31.127 130.728 31.2374C130.563 30.5472 130.287 29.8569 129.9 29.1667C129.513 28.4765 128.975 27.8691 128.285 27.3445C127.622 26.7923 126.794 26.3506 125.8 26.0192C124.806 25.6879 123.633 25.5223 122.28 25.5223C120.982 25.5223 119.726 25.7708 118.511 26.2677C117.296 26.7371 116.206 27.4687 115.239 28.4627C114.301 29.4566 113.541 30.7266 112.962 32.2728C112.409 33.8189 112.133 35.6549 112.133 37.7808C112.133 40.3209 112.465 42.502 113.127 44.3242C113.818 46.1465 114.715 47.6512 115.819 48.8384C116.951 49.998 118.235 50.8538 119.671 51.406C121.106 51.9582 122.584 52.2343 124.102 52.2343C125.869 52.2343 127.25 52.0549 128.243 51.6959C129.237 51.3094 130.024 50.9505 130.604 50.6192V40.3485C129.279 40.4037 127.912 40.4589 126.504 40.5141C125.096 40.5418 123.812 40.5556 122.653 40.5556C122.708 40.0862 122.832 39.6583 123.025 39.2717C123.246 38.8852 123.481 38.6229 123.729 38.4849L134 38.5677V49.9151Z" fill="#0AE862"/>
<path d="M102.801 10.5441C102.801 11.4971 102.029 12.2697 101.076 12.2697C100.123 12.2697 99.3502 11.4971 99.3502 10.5441C99.3502 9.59111 100.123 8.81854 101.076 8.81854C102.029 8.81854 102.801 9.59111 102.801 10.5441Z" fill="#8B3DEE"/>
<path d="M113.155 10.5441C113.155 11.4971 112.382 12.2697 111.429 12.2697C110.476 12.2697 109.704 11.4971 109.704 10.5441C109.704 9.59111 110.476 8.81854 111.429 8.81854C112.382 8.81854 113.155 9.59111 113.155 10.5441Z" fill="#8B3DEE"/>
<path d="M123.508 10.5441C123.508 11.4971 122.736 12.2697 121.783 12.2697C120.83 12.2697 120.057 11.4971 120.057 10.5441C120.057 9.59111 120.83 8.81854 121.783 8.81854C122.736 8.81854 123.508 9.59111 123.508 10.5441Z" fill="#8B3DEE"/>
<path d="M9.8663 8.58848C10.842 4.90341 14.6203 2.70703 18.3054 3.68273L39.9808 9.42175C43.6658 10.3974 45.8622 14.1758 44.8865 17.8608L38.7352 41.0933C37.7595 44.7783 33.9812 46.9747 30.2961 45.999L8.62077 40.26C4.9357 39.2843 2.73932 35.506 3.71502 31.8209L9.8663 8.58848Z" fill="#BC0653"/>
<path d="M6.41495 5.13737C7.39065 1.4523 11.169 -0.744082 14.854 0.23162L38.2075 6.41495C41.8926 7.39065 44.0889 11.169 43.1132 14.854L36.9299 38.2075C35.9542 41.8926 32.1759 44.0889 28.4908 43.1132L5.13737 36.9299C1.4523 35.9542 -0.744082 32.1759 0.23162 28.4908L6.41495 5.13737Z" fill="#E80A67"/>
<path d="M18.1568 10.1259C17.7019 11.8441 15.9403 12.8681 14.2221 12.4132C12.5039 11.9583 11.4798 10.1966 11.9348 8.47844C12.3897 6.76027 14.1513 5.7362 15.8695 6.19112C17.5877 6.64605 18.6117 8.4077 18.1568 10.1259Z" fill="white"/>
<path d="M15.6856 19.4589C15.2307 21.1771 13.469 22.2012 11.7508 21.7463C10.0327 21.2913 9.00859 19.5297 9.46351 17.8115C9.91844 16.0933 11.6801 15.0693 13.3983 15.5242C15.1165 15.9791 16.1405 17.7407 15.6856 19.4589Z" fill="white"/>
<path d="M34.3518 24.4012C33.8969 26.1194 32.1353 27.1435 30.4171 26.6885C28.6989 26.2336 27.6748 24.472 28.1298 22.7538C28.5847 21.0356 30.3463 20.0115 32.0645 20.4665C33.7827 20.9214 34.8068 22.683 34.3518 24.4012Z" fill="white"/>
<path d="M13.2145 28.7921C12.7596 30.5103 10.998 31.5344 9.2798 31.0794C7.56162 30.6245 6.53755 28.8629 6.99248 27.1447C7.44741 25.4265 9.20905 24.4024 10.9272 24.8574C12.6454 25.3123 13.6695 27.0739 13.2145 28.7921Z" fill="white"/>
<path d="M36.8231 15.0681C36.3681 16.7863 34.6065 17.8104 32.8883 17.3555C31.1701 16.9005 30.1461 15.1389 30.601 13.4207C31.0559 11.7025 32.8176 10.6785 34.5357 11.1334C36.2539 11.5883 37.278 13.35 36.8231 15.0681Z" fill="white"/>
<path d="M31.8808 33.7344C31.4259 35.4526 29.6642 36.4767 27.946 36.0217C26.2278 35.5668 25.2038 33.8052 25.6587 32.087C26.1136 30.3688 27.8753 29.3447 29.5935 29.7996C31.3117 30.2546 32.3357 32.0162 31.8808 33.7344Z" fill="white"/>
</svg>
